<?xml version="1.0" encoding="UTF-8" standalone="no"?>
<svg width="1024px" height="1024px" viewBox="0 0 1024 1024" version="1.1" xmlns="http://www.w3.org/2000/svg" xmlns:xlink="http://www.w3.org/1999/xlink" xmlns:sketch="http://www.bohemiancoding.com/sketch/ns">
    <!-- Generator: Sketch 3.3.3 (12072) - http://www.bohemiancoding.com/sketch -->
    <title>icon1024x1024</title>
    <desc>Created with Sketch.</desc>
    <defs></defs>
    <g id="Page-1" stroke="none" stroke-width="1" fill="none" fill-rule="evenodd" sketch:type="MSPage">
        <g id="icon1024x1024" sketch:type="MSArtboardGroup">
            <g id="Moments" sketch:type="MSLayerGroup" transform="translate(112.000000, 112.000000)">
                <path d="M400,800 C620.9139,800 800,620.9139 800,400 C800,179.0861 620.9139,0 400,0 C179.0861,0 0,179.0861 0,400 C0,620.9139 179.0861,800 400,800 Z M400,510 C460.751322,510 510,460.751322 510,400 C510,339.248678 460.751322,290 400,290 C339.248678,290 290,339.248678 290,400 C290,460.751322 339.248678,510 400,510 Z" id="Oval-2" fill="#FFFFFF" sketch:type="MSShapeGroup"></path>
                <path d="M72.3628534,572.073655 C112.721721,648.760734 179.215634,709.549773 260,742.596177 L260,742.596177 L260,384.436508 L72.3628534,572.073655 L72.3628534,572.073655 L72.3628534,572.073655 Z" id="Path" fill="#BAF15A" sketch:type="MSShapeGroup"></path>
                <path d="M58.7540378,543.256063 C40.2345993,499.194301 30,450.79236 30,400 C30,361.69505 35.820816,324.749623 46.6261699,290 L312.010101,290 L58.7540378,543.256063 L58.7540378,543.256063 L58.7540378,543.256063 Z" id="Path" fill="#F0DC58" sketch:type="MSShapeGroup"></path>
                <path d="M290,753.37383 C324.749623,764.179184 361.69505,770 400,770 C450.79236,770 499.194301,759.765401 543.256063,741.245962 L543.256063,741.245962 L290,487.989899 L290,753.37383 L290,753.37383 L290,753.37383 Z" id="Path" fill="#5EF15A" sketch:type="MSShapeGroup"></path>
                <path d="M572.073655,727.637147 C648.760734,687.278279 709.549773,620.784366 742.596177,540 L384.436508,540 L572.073655,727.637147 L572.073655,727.637147 L572.073655,727.637147 Z" id="Path" fill="#5AE5F1" sketch:type="MSShapeGroup"></path>
                <path d="M753.37383,510 C764.179184,475.250377 770,438.30495 770,400 C770,349.20764 759.765401,300.805699 741.245962,256.743937 L741.245962,256.743937 L487.989899,510 L753.37383,510 L753.37383,510 L753.37383,510 Z" id="Path" fill="#5A9EF1" sketch:type="MSShapeGroup"></path>
                <path d="M727.637147,227.926345 C687.278279,151.239266 620.784366,90.4502275 540,57.4038234 L540,57.4038234 L540,415.563492 L727.637147,227.926345 L727.637147,227.926345 L727.637147,227.926345 Z" id="Path" fill="#6C5AF1" sketch:type="MSShapeGroup"></path>
                <path d="M510,46.6261699 C475.250377,35.820816 438.30495,30 400,30 C349.20764,30 300.805699,40.2345993 256.743937,58.7540378 L256.743937,58.7540378 L510,312.010101 L510,46.6261699 L510,46.6261699 L510,46.6261699 Z" id="Path" fill="#F1765A" sketch:type="MSShapeGroup"></path>
                <path d="M227.926345,72.3628534 C151.239266,112.721721 90.4502275,179.215634 57.4038234,260 L57.4038234,260 L415.563492,260 L227.926345,72.3628534 L227.926345,72.3628534 Z" id="Path" fill="#F1B35B" sketch:type="MSShapeGroup"></path>
            </g>
        </g>
    </g>
</svg>